<svg width="18" height="12" viewBox="0 0 18 12" fill="none" xmlns="http://www.w3.org/2000/svg">
<path d="M6.74999 11.8125C6.67635 11.8125 6.60348 11.7975 6.5358 11.7685C6.46811 11.7395 6.40703 11.697 6.35624 11.6437L1.10624 6.39371C1.05453 6.342 1.01352 6.28062 0.985533 6.21306C0.957549 6.1455 0.943146 6.07309 0.943146 5.99996C0.943146 5.92684 0.957549 5.85443 0.985533 5.78687C1.01352 5.71931 1.05453 5.65792 1.10624 5.60621C1.15795 5.5545 1.21934 5.51349 1.2869 5.4855C1.35446 5.45752 1.42687 5.44312 1.49999 5.44312C1.57312 5.44312 1.64553 5.45752 1.71309 5.4855C1.78065 5.51349 1.84203 5.5545 1.89374 5.60621L6.74999 10.4531L16.8562 0.356212C16.9607 0.251783 17.1023 0.193115 17.25 0.193115C17.3977 0.193115 17.5393 0.251783 17.6437 0.356212C17.7482 0.460641 17.8068 0.602277 17.8068 0.749962C17.8068 0.897647 17.7482 1.03928 17.6437 1.14371L7.14374 11.6437C7.09296 11.697 7.03187 11.7395 6.96419 11.7685C6.8965 11.7975 6.82363 11.8125 6.74999 11.8125Z" fill="#DAC5A7"/>
</svg>
