<svg width="24" height="24" viewBox="0 0 24 24" fill="none" xmlns="http://www.w3.org/2000/svg">
<path d="M12 23.999L11.296 23.404C9.094 21.541 1.909 15.076 1.909 10.091C1.909 4.527 6.436 0 12 0C17.564 0 22.091 4.527 22.091 10.091C22.091 15.076 14.906 21.541 12.704 23.404L12 23.999ZM12 1C6.987 1 2.909 5.078 2.909 10.091C2.909 14.763 10.433 21.364 11.941 22.641L12 22.691L12.059 22.641C13.567 21.365 21.091 14.763 21.091 10.091C21.091 5.078 17.013 1 12 1Z" fill="#DAC5A7"/>
<path d="M12 14C9.794 14 8 12.206 8 10C8 7.794 9.794 6 12 6C14.206 6 16 7.794 16 10C16 12.206 14.206 14 12 14ZM12 7C10.346 7 9 8.346 9 10C9 11.654 10.346 13 12 13C13.654 13 15 11.654 15 10C15 8.346 13.654 7 12 7Z" fill="#DAC5A7"/>
</svg>
