<svg width="22" height="18" viewBox="0 0 22 18" fill="none" xmlns="http://www.w3.org/2000/svg">
<path d="M14.3122 8.53127L9.81219 5.53127C9.72742 5.47471 9.62889 5.44225 9.5271 5.43734C9.42532 5.43243 9.32412 5.45526 9.2343 5.50339C9.14449 5.55152 9.06943 5.62315 9.01716 5.71062C8.96488 5.79809 8.93735 5.89812 8.9375 6.00002V12C8.93735 12.1019 8.96488 12.2019 9.01716 12.2894C9.06943 12.3769 9.14449 12.4485 9.2343 12.4966C9.32412 12.5448 9.42532 12.5676 9.5271 12.5627C9.62889 12.5578 9.72742 12.5253 9.81219 12.4688L14.3122 9.46877C14.3895 9.41746 14.453 9.3478 14.4969 9.26601C14.5408 9.18423 14.5638 9.09284 14.5638 9.00002C14.5638 8.9072 14.5408 8.81581 14.4969 8.73403C14.453 8.65224 14.3895 8.58258 14.3122 8.53127ZM10.0625 10.9491V7.05096L12.9856 9.00002L10.0625 10.9491ZM20.7875 3.56252C20.7061 3.2463 20.5508 2.95393 20.3344 2.70945C20.1179 2.46498 19.8465 2.27538 19.5425 2.15627C16.3438 0.917831 11.2128 0.937519 11 0.937519C10.7872 0.937519 5.65625 0.917831 2.45375 2.15627C2.15043 2.27587 1.87978 2.46568 1.66402 2.71013C1.44825 2.95458 1.29351 3.24669 1.2125 3.56252C0.973438 4.48971 0.6875 6.18752 0.6875 9.00002C0.6875 11.8125 0.973438 13.5103 1.2125 14.4375C1.29389 14.7537 1.4492 15.0461 1.66564 15.2906C1.88208 15.5351 2.15348 15.7247 2.4575 15.8438C5.65625 17.0822 10.7863 17.0625 11 17.0625H11.0666C11.7144 17.0625 16.5041 17.0213 19.5462 15.8438C19.8503 15.7247 20.1217 15.5351 20.3381 15.2906C20.5546 15.0461 20.7099 14.7537 20.7913 14.4375C21.0303 13.5122 21.3162 11.8191 21.3162 9.00002C21.3162 6.18096 21.0312 4.48971 20.7875 3.56252ZM19.6981 14.1563C19.662 14.3004 19.5922 14.4338 19.4944 14.5456C19.3966 14.6575 19.2736 14.7444 19.1356 14.7994C16.1356 15.9553 11.0544 15.9375 11 15.9375C10.9456 15.9375 5.87094 15.9563 2.86719 14.7966C2.72918 14.7416 2.60621 14.6546 2.50841 14.5428C2.41062 14.431 2.34079 14.2976 2.30469 14.1535C2.07875 13.2919 1.8125 11.6981 1.8125 9.00002C1.8125 6.30189 2.07875 4.70814 2.30188 3.84377C2.33798 3.69967 2.4078 3.56622 2.5056 3.4544C2.6034 3.34259 2.72637 3.25561 2.86438 3.20064C5.75563 2.08689 10.5809 2.06252 10.9775 2.06252H11C11.0506 2.06252 16.1291 2.04377 19.1328 3.20346C19.2708 3.25842 19.3938 3.3454 19.4916 3.45721C19.5894 3.56903 19.6592 3.70248 19.6953 3.84658C19.9184 4.70814 20.1847 6.30189 20.1847 9.00283C20.1847 11.7038 19.9212 13.2919 19.6981 14.1563Z" fill="#DAC5A7"/>
</svg>
